<svg xmlns="http://www.w3.org/2000/svg" xmlns:xlink="http://www.w3.org/1999/xlink" viewBox="0 0 96.05 70.84"><defs><style>.cls-1{fill:url(#linear-gradient);}.cls-2{fill:url(#linear-gradient-2);}</style><linearGradient id="linear-gradient" x1="156.41" y1="364.48" x2="212.26" y2="364.48" gradientTransform="translate(267.6 406.22) rotate(177.49)" gradientUnits="userSpaceOnUse"><stop offset="0" stop-color="#00f7a7"/><stop offset="1" stop-color="#2afffc"/></linearGradient><linearGradient id="linear-gradient-2" x1="192.47" y1="396.34" x2="249.86" y2="396.34" xlink:href="#linear-gradient"/></defs><title>wringsvg</title><g id="Layer_2" data-name="Layer 2"><g id="Layer_1-2" data-name="Layer 1"><g id="wringsvg"><path class="cls-1" d="M39.06,39.28l15.15,2.6,4.6,19.72a6.57,6.57,0,0,0,5.29,5l24.25,4.17a6.58,6.58,0,1,0,2.23-13l-20-3.43L66,34.64a6.58,6.58,0,0,0-5.29-5l-4-.68Z"/><path class="cls-2" d="M58.42,29.17,43,27.31,37.8,7.78A6.45,6.45,0,0,0,32.3,3L7.62,0A6.83,6.83,0,0,0,.07,5.8a6.44,6.44,0,0,0,5.65,7.35L26,15.61l5.2,19.53a6.46,6.46,0,0,0,5.5,4.74l4,.49Z"/></g></g></g></svg>